<svg width="144" height="28" viewBox="0 0 144 28" fill="none" xmlns="http://www.w3.org/2000/svg">
<rect x="16.7871" y="2.13318" width="9.33631" height="23.8669" rx="4.66815" fill="#FBBC04"/>
<rect x="21.4551" y="0.0721436" width="9.33631" height="30.0182" rx="4.66815" transform="rotate(45 21.4551 0.0721436)" fill="#34A853"/>
<rect x="42.2773" y="2.13318" width="9.33631" height="23.8669" rx="4.66815" fill="#4285F4"/>
<rect x="29.4575" y="2.13318" width="9.33631" height="23.8669" rx="4.66815" fill="#FF3D57"/>
<path d="M74.7627 8.89465L70.5146 21.2189H67.9463L73.2979 7.00012H74.9385L74.7627 8.89465ZM78.3174 21.2189L74.0596 8.89465L73.874 7.00012H75.5244L80.8955 21.2189H78.3174ZM78.1123 15.9454V17.8888H70.3779V15.9454H78.1123ZM85.1725 6.21887V21.2189H82.8092V6.21887H85.1725ZM90.6701 6.21887V21.2189H88.3068V6.21887H90.6701ZM106.744 17.5568C106.744 17.2638 106.698 17.0034 106.607 16.7755C106.522 16.5476 106.369 16.3393 106.148 16.1505C105.926 15.9617 105.614 15.7794 105.21 15.6036C104.813 15.4213 104.305 15.2358 103.687 15.047C103.01 14.8387 102.385 14.6075 101.812 14.3536C101.246 14.0932 100.751 13.7937 100.328 13.4552C99.9044 13.1101 99.5756 12.7163 99.3412 12.2736C99.1068 11.8243 98.9896 11.3068 98.9896 10.7208C98.9896 10.1414 99.1101 9.61405 99.351 9.13879C99.5984 8.66353 99.9467 8.25338 100.396 7.90833C100.852 7.55676 101.389 7.28658 102.007 7.09778C102.626 6.90247 103.309 6.80481 104.058 6.80481C105.113 6.80481 106.021 7.00012 106.783 7.39075C107.551 7.78137 108.14 8.30546 108.55 8.96301C108.967 9.62056 109.175 10.3465 109.175 11.1407H106.744C106.744 10.672 106.643 10.2586 106.441 9.90051C106.246 9.53593 105.946 9.24947 105.542 9.04114C105.145 8.8328 104.641 8.72864 104.029 8.72864C103.449 8.72864 102.968 8.81653 102.583 8.99231C102.199 9.16809 101.913 9.40572 101.724 9.7052C101.535 10.0047 101.441 10.3432 101.441 10.7208C101.441 10.9878 101.503 11.2319 101.626 11.4532C101.75 11.6681 101.939 11.8699 102.193 12.0587C102.447 12.241 102.766 12.4135 103.15 12.5763C103.534 12.7391 103.986 12.8953 104.507 13.045C105.295 13.2794 105.982 13.5398 106.568 13.8263C107.154 14.1062 107.642 14.4253 108.033 14.7833C108.423 15.1414 108.716 15.5483 108.912 16.004C109.107 16.4532 109.204 16.9643 109.204 17.5372C109.204 18.1362 109.084 18.6766 108.843 19.1583C108.602 19.6336 108.257 20.0405 107.808 20.379C107.365 20.7111 106.831 20.9682 106.206 21.1505C105.588 21.3263 104.898 21.4142 104.136 21.4142C103.453 21.4142 102.779 21.323 102.115 21.1407C101.457 20.9585 100.858 20.6818 100.318 20.3107C99.7774 19.9331 99.3477 19.4643 99.0287 18.9044C98.7097 18.338 98.5502 17.6772 98.5502 16.922H101.001C101.001 17.3842 101.079 17.7781 101.236 18.1036C101.399 18.4292 101.623 18.6961 101.91 18.9044C102.196 19.1062 102.528 19.256 102.906 19.3536C103.29 19.4513 103.7 19.5001 104.136 19.5001C104.709 19.5001 105.188 19.4187 105.572 19.256C105.962 19.0932 106.255 18.8654 106.451 18.5724C106.646 18.2794 106.744 17.9409 106.744 17.5568ZM116.382 10.6525V12.3712H110.425V10.6525H116.382ZM112.144 8.06458H114.497V18.299C114.497 18.6245 114.543 18.8751 114.634 19.0509C114.731 19.2202 114.865 19.3341 115.034 19.3927C115.203 19.4513 115.402 19.4806 115.63 19.4806C115.793 19.4806 115.949 19.4708 116.099 19.4513C116.248 19.4318 116.369 19.4122 116.46 19.3927L116.47 21.1896C116.274 21.2482 116.047 21.3003 115.786 21.3458C115.532 21.3914 115.239 21.4142 114.907 21.4142C114.367 21.4142 113.888 21.3198 113.472 21.131C113.055 20.9357 112.729 20.6199 112.495 20.1837C112.261 19.7475 112.144 19.1681 112.144 18.4454V8.06458ZM124.555 19.0997V14.0607C124.555 13.6831 124.487 13.3575 124.35 13.0841C124.213 12.8107 124.005 12.5991 123.725 12.4493C123.452 12.2996 123.107 12.2247 122.69 12.2247C122.306 12.2247 121.974 12.2898 121.694 12.42C121.414 12.5503 121.196 12.726 121.04 12.9474C120.883 13.1687 120.805 13.4194 120.805 13.6993H118.462C118.462 13.2827 118.562 12.879 118.764 12.4884C118.966 12.0978 119.259 11.7495 119.643 11.4435C120.027 11.1375 120.486 10.8966 121.02 10.7208C121.554 10.545 122.153 10.4572 122.817 10.4572C123.611 10.4572 124.314 10.5906 124.926 10.8575C125.545 11.1245 126.03 11.5281 126.381 12.0685C126.74 12.6023 126.919 13.2729 126.919 14.0802V18.7775C126.919 19.2592 126.951 19.6922 127.016 20.0763C127.088 20.4539 127.189 20.7827 127.319 21.0626V21.2189H124.907C124.796 20.965 124.708 20.6427 124.643 20.2521C124.585 19.8549 124.555 19.4708 124.555 19.0997ZM124.897 14.7931L124.917 16.2482H123.227C122.791 16.2482 122.407 16.2905 122.075 16.3751C121.743 16.4532 121.466 16.5704 121.245 16.7267C121.023 16.8829 120.857 17.0717 120.747 17.2931C120.636 17.5144 120.581 17.7651 120.581 18.045C120.581 18.325 120.646 18.5822 120.776 18.8165C120.906 19.0444 121.095 19.2234 121.342 19.3536C121.596 19.4838 121.902 19.549 122.26 19.549C122.742 19.549 123.162 19.4513 123.52 19.256C123.885 19.0542 124.171 18.81 124.379 18.5236C124.588 18.2306 124.699 17.9539 124.712 17.6935L125.473 18.7384C125.395 19.0053 125.262 19.2918 125.073 19.5978C124.884 19.9038 124.637 20.1967 124.331 20.4767C124.031 20.7501 123.67 20.9747 123.247 21.1505C122.83 21.3263 122.348 21.4142 121.801 21.4142C121.111 21.4142 120.496 21.2775 119.956 21.004C119.415 20.7241 118.992 20.3497 118.686 19.881C118.38 19.4057 118.227 18.8686 118.227 18.2697C118.227 17.7098 118.331 17.215 118.54 16.7853C118.754 16.3491 119.067 15.9845 119.477 15.6915C119.894 15.3986 120.402 15.1772 121.001 15.0275C121.6 14.8712 122.283 14.7931 123.051 14.7931H124.897ZM132.963 21.2189H130.61V9.63684C130.61 8.84908 130.756 8.18827 131.049 7.65442C131.349 7.11405 131.775 6.70715 132.328 6.43372C132.882 6.15377 133.536 6.01379 134.291 6.01379C134.526 6.01379 134.757 6.03007 134.985 6.06262C135.212 6.08866 135.434 6.13098 135.649 6.18958L135.59 8.00598C135.46 7.97343 135.317 7.95064 135.16 7.93762C135.011 7.9246 134.848 7.91809 134.672 7.91809C134.314 7.91809 134.005 7.98645 133.744 8.12317C133.49 8.25338 133.295 8.44543 133.158 8.69934C133.028 8.95325 132.963 9.26575 132.963 9.63684V21.2189ZM135.141 10.6525V12.3712H128.988V10.6525H135.141ZM140.433 21.2189H138.08V9.63684C138.08 8.84908 138.226 8.18827 138.519 7.65442C138.819 7.11405 139.245 6.70715 139.799 6.43372C140.352 6.15377 141.006 6.01379 141.762 6.01379C141.996 6.01379 142.227 6.03007 142.455 6.06262C142.683 6.08866 142.904 6.13098 143.119 6.18958L143.06 8.00598C142.93 7.97343 142.787 7.95064 142.631 7.93762C142.481 7.9246 142.318 7.91809 142.142 7.91809C141.784 7.91809 141.475 7.98645 141.215 8.12317C140.961 8.25338 140.765 8.44543 140.629 8.69934C140.498 8.95325 140.433 9.26575 140.433 9.63684V21.2189ZM142.611 10.6525V12.3712H136.459V10.6525H142.611Z" fill="#444746"/>
</svg>
